<mxfile host="app.diagrams.net" modified="2023-08-02T15:30:28.450Z" agent="Mozilla/5.0 (Windows NT 10.0; Win64; x64) AppleWebKit/537.36 (KHTML, like Gecko) Chrome/115.0.0.0 Safari/537.36" version="21.6.6" etag="MEOzwABfw0Ade6QXJZV1" type="github">
  <diagram name="Page-1" id="0_ObGj6N45gQf2YhwZd1">
    <mxGraphModel>
      <root>
        <mxCell id="0" />
        <mxCell id="1" parent="0" />
      </root>
    </mxGraphModel>
  </diagram>
</mxfile>
